<svg xmlns="http://www.w3.org/2000/svg" x="0px" y="0px" viewBox="14.625 10.25 34.75 43.5" enable-background="new 0 0 64 64">
<g>
	
		<path fill="#000000" stroke="#E6E9EC" stroke-width="1.5" stroke-linecap="round" stroke-linejoin="round" stroke-miterlimit="10" d="   M24.125,36.42c0,3.36,2.72,6.08,6.08,6.08h12.34c3.36,0,6.08-2.72,6.08-6.08V17.08c0-3.36-2.72-6.08-6.08-6.08h-12.34   c-3.36,0-6.08,2.72-6.08,6.08V36.42z"/>
</g>
<g>
	
		<path fill="#000000" stroke="#E6E9EC" stroke-width="1.5" stroke-linecap="round" stroke-linejoin="round" stroke-miterlimit="10" d="   M41.625,31.25v16.07c0,3.13-2.55,5.68-5.68,5.68h-14.89c-3.13,0-5.68-2.55-5.68-5.68V27.18c0-3.13,2.55-5.68,5.68-5.68h10.82"/>
	
		<path fill="#000000" stroke="#E6E9EC" stroke-width="1.5" stroke-linecap="round" stroke-linejoin="round" stroke-miterlimit="10" d="   M31.125,22.246v6.041c0,2.0506,1.6624,3.713,3.713,3.713h6.041c0.6633,0,0.9955-0.802,0.5265-1.271l-9.0094-9.0094   C31.927,21.2505,31.125,21.5827,31.125,22.246z"/>
</g>
</svg>